<svg width="40" height="40" fill="none" xmlns="http://www.w3.org/2000/svg"><path fill-rule="evenodd" clip-rule="evenodd" d="M19.947 39.51c11.016 0 19.947-8.844 19.947-19.755C39.894 8.845 30.964 0 19.947 0S0 8.845 0 19.755c0 10.91 8.93 19.756 19.947 19.756z" fill="#C1A1D2"/><mask id="mask0_6_211" style="mask-type:alpha" maskUnits="userSpaceOnUse" x="0" y="0" width="40" height="40"><path fill-rule="evenodd" clip-rule="evenodd" d="M19.947 39.51c11.016 0 19.947-8.844 19.947-19.755C39.894 8.845 30.964 0 19.947 0S0 8.845 0 19.755c0 10.91 8.93 19.756 19.947 19.756z" fill="#fff"/></mask><path d="M31.17 13.862a8.298 8.298 0 01-2.386.654 4.173 4.173 0 001.826-2.297 8.38 8.38 0 01-2.64 1.008 4.155 4.155 0 00-7.08 3.788 11.797 11.797 0 01-8.564-4.34 4.124 4.124 0 00-.562 2.088c0 1.441.734 2.714 1.848 3.458a4.155 4.155 0 01-1.882-.522v.052a4.16 4.16 0 003.332 4.075 4.207 4.207 0 01-1.095.145c-.268 0-.527-.026-.782-.077a4.157 4.157 0 003.88 2.886 8.337 8.337 0 01-5.16 1.775c-.335 0-.665-.02-.99-.056a11.744 11.744 0 006.369 1.869c7.643 0 11.822-6.331 11.822-11.822l-.015-.538a8.297 8.297 0 002.079-2.146z" fill="#010002"/><mask id="mask1_6_211" style="mask-type:alpha" maskUnits="userSpaceOnUse" x="10" y="11" width="22" height="18"><path d="M31.17 13.862a8.298 8.298 0 01-2.386.654 4.173 4.173 0 001.826-2.297 8.38 8.38 0 01-2.64 1.008 4.155 4.155 0 00-7.08 3.788 11.797 11.797 0 01-8.564-4.34 4.124 4.124 0 00-.562 2.088c0 1.441.734 2.714 1.848 3.458a4.155 4.155 0 01-1.882-.522v.052a4.16 4.16 0 003.332 4.075 4.207 4.207 0 01-1.095.145c-.268 0-.527-.026-.782-.077a4.157 4.157 0 003.88 2.886 8.337 8.337 0 01-5.16 1.775c-.335 0-.665-.02-.99-.056a11.744 11.744 0 006.369 1.869c7.643 0 11.822-6.331 11.822-11.822l-.015-.538a8.297 8.297 0 002.079-2.146z" fill="#fff"/></mask><g mask="url(#mask1_6_211)"><path fill="#fff" d="M7.34 7.149h26.213v26.213H7.34z"/></g></svg>