<svg width="40" height="40" fill="none" xmlns="http://www.w3.org/2000/svg"><path fill-rule="evenodd" clip-rule="evenodd" d="M19.947 39.51c11.016 0 19.947-8.844 19.947-19.755C39.894 8.845 30.964 0 19.947 0S0 8.845 0 19.755c0 10.91 8.93 19.756 19.947 19.756z" fill="#C1A1D2"/><mask id="mask0_6_222" style="mask-type:alpha" maskUnits="userSpaceOnUse" x="0" y="0" width="40" height="40"><path fill-rule="evenodd" clip-rule="evenodd" d="M19.947 39.51c11.016 0 19.947-8.844 19.947-19.755C39.894 8.845 30.964 0 19.947 0S0 8.845 0 19.755c0 10.91 8.93 19.756 19.947 19.756z" fill="#fff"/></mask><path d="M20.447 18.587v3.336h4.72a5.014 5.014 0 01-4.72 3.337 5.01 5.01 0 01-5.004-5.005 5.01 5.01 0 015.004-5.004 4.93 4.93 0 013.241 1.208l2.192-2.516a8.266 8.266 0 00-5.433-2.028c-4.599 0-8.34 3.741-8.34 8.34 0 4.6 3.741 8.34 8.34 8.34 4.6 0 8.34-3.74 8.34-8.34v-1.668h-8.34z" fill="#000"/><mask id="mask1_6_222" style="mask-type:alpha" maskUnits="userSpaceOnUse" x="12" y="11" width="17" height="18"><path d="M20.447 18.587v3.336h4.72a5.014 5.014 0 01-4.72 3.337 5.01 5.01 0 01-5.004-5.005 5.01 5.01 0 015.004-5.004 4.93 4.93 0 013.241 1.208l2.192-2.516a8.266 8.266 0 00-5.433-2.028c-4.599 0-8.34 3.741-8.34 8.34 0 4.6 3.741 8.34 8.34 8.34 4.6 0 8.34-3.74 8.34-8.34v-1.668h-8.34z" fill="#fff"/></mask><g mask="url(#mask1_6_222)"><path fill="#fff" d="M7.341 7.149h26.213v26.213H7.341z"/></g></svg>