<svg width="40" height="40" fill="none" xmlns="http://www.w3.org/2000/svg"><path fill-rule="evenodd" clip-rule="evenodd" d="M19.947 39.51c11.016 0 19.947-8.844 19.947-19.755C39.894 8.845 30.964 0 19.947 0S0 8.845 0 19.755c0 10.91 8.93 19.756 19.947 19.756z" fill="#C1A1D2"/><mask id="mask0_6_233" style="mask-type:alpha" maskUnits="userSpaceOnUse" x="0" y="0" width="40" height="40"><path fill-rule="evenodd" clip-rule="evenodd" d="M19.947 39.51c11.016 0 19.947-8.844 19.947-19.755C39.894 8.845 30.964 0 19.947 0S0 8.845 0 19.755c0 10.91 8.93 19.756 19.947 19.756z" fill="#fff"/></mask><path d="M22.233 29.787v-8.695h2.974l.446-3.39h-3.42v-2.164c0-.98.276-1.65 1.712-1.65h1.829v-3.032a25.276 25.276 0 00-2.665-.133c-2.638 0-4.444 1.58-4.444 4.48v2.5H15.68v3.389h2.984v8.695h3.568z" fill="#fff"/><mask id="mask1_6_233" style="mask-type:alpha" maskUnits="userSpaceOnUse" x="15" y="10" width="11" height="20"><path d="M22.233 29.787v-8.695h2.974l.446-3.39h-3.42v-2.164c0-.98.276-1.65 1.712-1.65h1.829v-3.032a25.276 25.276 0 00-2.665-.133c-2.638 0-4.444 1.58-4.444 4.48v2.5H15.68v3.389h2.984v8.695h3.568z" fill="#fff"/></mask><g mask="url(#mask1_6_233)"><path fill="#fff" d="M7.341 7.149h26.213v26.213H7.341z"/></g></svg>